<svg xmlns="http://www.w3.org/2000/svg" viewBox="0 0 560 300" width="560" height="300" font-family="Segoe UI, Arial, sans-serif">
<rect width="560" height="300" fill="#0a0e13"/>
<text x="20" y="30" fill="#e7ebf0" font-size="15" font-weight="700">Grade de pôsteres</text>
<text x="20" y="50" fill="#8e9bad" font-size="11">anotação do que observei no Letterboxd</text>
<rect x="20" y="70" width="88" height="132" rx="7" fill="#1b2331" stroke="#27323f"/>
<rect x="78" y="78" width="24" height="14" rx="7" fill="#0a0e13"/>
<text x="82" y="89" fill="#d0a05a" font-size="8" font-weight="700">8.2</text>
<rect x="20" y="208" width="70" height="7" rx="3" fill="#27323f"/>
<rect x="125" y="70" width="88" height="132" rx="7" fill="#1b2331" stroke="#e05a3d"/>
<rect x="183" y="78" width="24" height="14" rx="7" fill="#0a0e13"/>
<text x="187" y="89" fill="#d0a05a" font-size="8" font-weight="700">8.3</text>
<rect x="125" y="208" width="66" height="7" rx="3" fill="#27323f"/>
<rect x="230" y="70" width="88" height="132" rx="7" fill="#1b2331" stroke="#27323f"/>
<rect x="288" y="78" width="24" height="14" rx="7" fill="#0a0e13"/>
<text x="292" y="89" fill="#d0a05a" font-size="8" font-weight="700">8.4</text>
<rect x="230" y="208" width="62" height="7" rx="3" fill="#27323f"/>
<rect x="335" y="70" width="88" height="132" rx="7" fill="#1b2331" stroke="#27323f"/>
<rect x="393" y="78" width="24" height="14" rx="7" fill="#0a0e13"/>
<text x="397" y="89" fill="#d0a05a" font-size="8" font-weight="700">8.5</text>
<rect x="335" y="208" width="58" height="7" rx="3" fill="#27323f"/>
<rect x="440" y="70" width="88" height="132" rx="7" fill="#1b2331" stroke="#27323f"/>
<rect x="498" y="78" width="24" height="14" rx="7" fill="#0a0e13"/>
<text x="502" y="89" fill="#d0a05a" font-size="8" font-weight="700">8.6</text>
<rect x="440" y="208" width="54" height="7" rx="3" fill="#27323f"/>
<circle cx="139" cy="86" r="9" fill="#d0a05a"/>
<path d="M134 86 l3.5 3.5 L145 83" stroke="#241705" stroke-width="2" fill="none" stroke-linecap="round" stroke-linejoin="round"/>
<rect x="125" y="190" width="60" height="6" fill="#e05a3d"/>
<text x="20" y="252" fill="#8e9bad" font-size="11">Pôster grande, nota no canto, quase nada de texto.</text>
<text x="20" y="270" fill="#8e9bad" font-size="11">Acrescentei a barrinha de progresso e o selo de "já está na lista".</text>
</svg>
