<svg xmlns="http://www.w3.org/2000/svg" viewBox="0 0 560 250" width="560" height="250" font-family="Segoe UI, Arial, sans-serif">
<rect width="560" height="250" fill="#0a0e13"/>
<text x="20" y="30" fill="#e7ebf0" font-size="15" font-weight="700">Botão de marcar como feito</text>
<text x="20" y="50" fill="#8e9bad" font-size="11">anotação do que observei no Duolingo</text>
<rect x="20" y="70" width="380" height="62" rx="10" fill="#121821" stroke="#27323f"/>
<circle cx="54" cy="101" r="19" fill="#1b2331" stroke="#27323f" stroke-width="2"/>
<text x="54" y="106" text-anchor="middle" fill="#8e9bad" font-size="13" font-weight="700">7</text>
<rect x="86" y="88" width="150" height="9" rx="4" fill="#27323f"/>
<rect x="86" y="105" width="200" height="7" rx="3" fill="#1b2331"/>
<rect x="20" y="144" width="380" height="62" rx="10" fill="#121821" stroke="#d0a05a" stroke-opacity="0.4"/>
<circle cx="54" cy="175" r="19" fill="#d0a05a"/>
<path d="M46 175 l6 6 l12 -12" stroke="#241705" stroke-width="3" fill="none" stroke-linecap="round" stroke-linejoin="round"/>
<rect x="86" y="162" width="130" height="9" rx="4" fill="#27323f"/>
<rect x="86" y="179" width="175" height="7" rx="3" fill="#1b2331"/>
<path d="M414 82 L414 120" stroke="#8e9bad" stroke-width="1"/>
<path d="M409 82 L419 82 M409 120 L419 120" stroke="#8e9bad" stroke-width="1"/>
<text x="424" y="105" fill="#8e9bad" font-size="11">44px</text>
<text x="20" y="232" fill="#8e9bad" font-size="11">É o clique mais repetido do site, então é o maior elemento da linha.</text>
</svg>
